<?xml version="1.0" encoding="iso-8859-1"?>
<!-- Generator: Adobe Illustrator 19.0.0, SVG Export Plug-In . SVG Version: 6.00 Build 0)  -->
<svg version="1.1" id="Capa_1" xmlns="http://www.w3.org/2000/svg" xmlns:xlink="http://www.w3.org/1999/xlink" x="0px" y="0px"
	 viewBox="0 0 512 512" style="enable-background:new 0 0 512 512;" xml:space="preserve">
<rect x="40.471" y="7.5" style="fill:#FF4655;" width="431.06" height="282.7"/>
<rect x="100.98" y="38.2" style="fill:#D73532;" width="370.55" height="221.31"/>
<rect id="SVGCleanerId_0" x="70.982" y="38.2" style="fill:#A1FFF6;" width="370.04" height="221.31"/>
<g>
	<rect id="SVGCleanerId_0_1_" x="70.982" y="38.2" style="fill:#A1FFF6;" width="370.04" height="221.31"/>
</g>
<path style="fill:#FF4655;" d="M61.262,414.03c-5.404,5.404-8.434,8.434-13.839,13.839V504.5h139.051v-76.632
	c-5.404-5.404-8.434-8.434-13.839-13.839H61.262V414.03z"/>
<circle style="fill:#FFCF9A;" cx="116.95" cy="368.08" r="45.945"/>
<path style="fill:#FF4655;" d="M200.313,414.03c-5.404,5.404-8.434,8.434-13.839,13.839V504.5h139.051v-76.632
	c-5.404-5.404-8.434-8.434-13.839-13.839H200.313V414.03z"/>
<circle style="fill:#FFCF9A;" cx="256" cy="368.08" r="45.945"/>
<path style="fill:#FF4655;" d="M339.364,414.03c-5.404,5.404-8.434,8.434-13.839,13.839V504.5h139.051v-76.632
	c-5.404-5.404-8.434-8.434-13.839-13.839H339.364V414.03z"/>
<circle style="fill:#FFCF9A;" cx="395.05" cy="368.08" r="45.945"/>
<rect x="40.471" y="7.5" style="fill:#D73532;" width="30" height="282.7"/>
<rect x="70.982" y="38.2" style="fill:#00FFF6;" width="30" height="221.31"/>
<polygon style="fill:#D73532;" points="91.262,414.03 61.262,414.03 47.423,427.868 47.423,504.5 77.423,504.5 77.423,427.868 "/>
<path style="fill:#FFA06F;" d="M101.003,368.084c0-20.12,12.939-37.208,30.945-43.427c-4.703-1.624-9.745-2.518-15-2.518
	c-25.375,0-45.945,20.571-45.945,45.946s20.57,45.945,45.945,45.945c5.255,0,10.297-0.894,15-2.518
	C113.942,405.292,101.003,388.205,101.003,368.084z"/>
<path style="fill:#D73532;" d="M230.313,414.03h-30c-5.404,5.404-8.434,8.434-13.839,13.839V504.5h30v-76.632
	C221.879,422.464,224.909,419.434,230.313,414.03z"/>
<path style="fill:#FFA06F;" d="M240.055,368.084c0-20.12,12.939-37.208,30.945-43.427c-4.703-1.624-9.745-2.518-15-2.518
	c-25.375,0-45.945,20.571-45.945,45.946S230.625,414.03,256,414.03c5.255,0,10.297-0.894,15-2.518
	C252.993,405.292,240.055,388.205,240.055,368.084z"/>
<path style="fill:#D73532;" d="M369.365,414.03h-30c-5.404,5.404-8.434,8.434-13.839,13.839V504.5h30v-76.632
	C360.93,422.464,363.96,419.434,369.365,414.03z"/>
<path style="fill:#FFA06F;" d="M379.106,368.084c0-20.12,12.939-37.208,30.945-43.427c-4.703-1.624-9.745-2.518-15-2.518
	c-25.375,0-45.945,20.571-45.945,45.946s20.57,45.945,45.945,45.945c5.255,0,10.297-0.894,15-2.518
	C392.045,405.292,379.106,388.205,379.106,368.084z"/>
<g>
	<rect x="398.41" y="225.35" style="fill:#1D1D1F;" width="15" height="15"/>
	<rect x="348.41" y="225.35" style="fill:#1D1D1F;" width="15" height="15"/>
	<rect x="373.41" y="225.35" style="fill:#1D1D1F;" width="15" height="15"/>
</g>
<g>
	<rect x="259.48" y="57.4" style="fill:#FFFFFF;" width="15" height="15"/>
	<rect x="284.48" y="57.4" style="fill:#FFFFFF;" width="15" height="15"/>
	<rect x="309.48" y="57.4" style="fill:#FFFFFF;" width="111.72" height="15"/>
</g>
<g>
	<polygon style="fill:#1D1D1F;" points="63.482,267.007 448.518,267.007 448.518,30.695 144.636,30.695 144.636,45.695 
		433.518,45.695 433.518,252.007 78.482,252.007 78.482,45.695 129.636,45.695 129.636,30.695 63.482,30.695 	"/>
	<polygon style="fill:#1D1D1F;" points="32.971,0 32.971,106.262 47.971,106.262 47.971,15 464.029,15 464.029,77.68 479.029,77.68 
		479.029,0 	"/>
	<polygon style="fill:#1D1D1F;" points="464.029,282.703 47.971,282.703 47.971,121.262 32.971,121.262 32.971,297.703 
		479.029,297.703 479.029,92.68 464.029,92.68 	"/>
	<polygon style="fill:#1D1D1F;" points="152.958,109.647 130.264,132.341 107.57,109.647 96.963,120.255 119.657,142.948 
		96.963,165.642 107.57,176.249 130.264,153.555 152.958,176.249 163.564,165.642 140.871,142.948 163.564,120.255 	"/>
	<polygon style="fill:#1D1D1F;" points="357.23,107.451 357.23,122.451 389.313,122.451 353.911,178.445 413.224,178.445 
		413.224,163.445 381.141,163.445 416.543,107.451 	"/>
	<polygon style="fill:#1D1D1F;" points="230.275,109.647 219.669,120.255 245.469,146.055 245.469,178.094 260.469,178.094 
		260.469,146.055 286.27,120.255 275.663,109.647 252.969,132.342 	"/>
	<rect x="170.31" y="135.45" style="fill:#1D1D1F;" width="42.618" height="15"/>
	<rect x="297.64" y="147.94" style="fill:#1D1D1F;" width="42.618" height="15"/>
	<rect x="297.64" y="122.95" style="fill:#1D1D1F;" width="42.618" height="15"/>
	<rect x="87.22" y="225.35" style="fill:#1D1D1F;" width="50.986" height="15"/>
	<rect x="233.52" y="468.05" style="fill:#1D1D1F;" width="15" height="15"/>
	<rect x="208.52" y="468.05" style="fill:#1D1D1F;" width="15" height="15"/>
	<rect x="258.52" y="468.05" style="fill:#1D1D1F;" width="15" height="15"/>
	<path style="fill:#1D1D1F;" d="M432.121,406.529c10.084-9.727,16.376-23.361,16.376-38.445c0-29.47-23.976-53.445-53.445-53.445
		s-53.445,23.976-53.445,53.445c0,15.084,6.291,28.718,16.376,38.445h-21.724l-10.732,10.732l-10.732-10.732H293.07
		c10.084-9.727,16.376-23.361,16.376-38.445c0-29.47-23.976-53.445-53.445-53.445s-53.445,23.976-53.445,53.445
		c0,15.084,6.291,28.718,16.376,38.445h-21.724l-10.732,10.732l-10.732-10.732H154.02c10.084-9.727,16.376-23.361,16.376-38.445
		c0-29.47-23.976-53.445-53.445-53.445s-53.445,23.976-53.445,53.445c0,15.084,6.291,28.718,16.376,38.445H58.155l-18.232,18.232
		V512h432.154v-57.233h-15V497H333.026v-66.025l9.445-9.445h105.161l9.445,9.445v8.792h15v-15.005l-18.232-18.232h-21.724V406.529z
		 M217.555,368.084c0-21.199,17.247-38.445,38.445-38.445s38.445,17.246,38.445,38.445S277.199,406.529,256,406.529
		S217.555,389.283,217.555,368.084z M78.503,368.084c0-21.199,17.247-38.445,38.445-38.445s38.445,17.246,38.445,38.445
		s-17.247,38.445-38.445,38.445S78.503,389.283,78.503,368.084z M178.974,497H54.923v-66.025l9.445-9.445h105.161l9.445,9.445V497z
		 M318.026,497H193.974v-66.025l9.445-9.445H308.58l9.445,9.445L318.026,497L318.026,497z M356.606,368.084
		c0-21.199,17.247-38.445,38.445-38.445s38.445,17.246,38.445,38.445s-17.247,38.445-38.445,38.445S356.606,389.283,356.606,368.084
		z"/>
</g>
<g>
	<rect x="67.24" y="468.49" style="fill:#FFFFFF;" width="15" height="15"/>
	<rect x="117.24" y="468.49" style="fill:#FFFFFF;" width="48.32" height="15"/>
	<rect x="92.24" y="468.49" style="fill:#FFFFFF;" width="15" height="15"/>
</g>
<g>
	<rect x="369.97" y="468.05" style="fill:#1D1D1F;" width="64.67" height="15"/>
	<path style="fill:#1D1D1F;" d="M413.064,368.018l15-0.053c-0.023-6.549-1.962-12.873-5.606-18.291l-12.446,8.373
		C411.997,360.996,413.052,364.444,413.064,368.018z"/>
	<path style="fill:#1D1D1F;" d="M411.733,374.902c-2.784,6.802-9.331,11.196-16.679,11.196h-0.002l-0.001,15
		c0.001,0,0.001,0,0.003,0c13.464,0,25.46-8.053,30.561-20.515L411.733,374.902z"/>
	<path style="fill:#1D1D1F;" d="M413.363,340.611c-5.429-3.625-11.761-5.541-18.312-5.541v15c3.575,0,7.027,1.043,9.982,3.016
		L413.363,340.611z"/>
	<path style="fill:#1D1D1F;" d="M274.011,368.019l15-0.055c-0.024-6.548-1.962-12.873-5.606-18.29l-12.446,8.373
		C272.942,360.996,273.998,364.444,274.011,368.019z"/>
	<path style="fill:#1D1D1F;" d="M272.678,374.902c-2.783,6.802-9.33,11.196-16.679,11.196h-0.002l-0.001,15c0.001,0,0.001,0,0.003,0
		c13.464,0,25.461-8.053,30.562-20.515L272.678,374.902z"/>
	<path style="fill:#1D1D1F;" d="M274.307,340.609c-5.43-3.624-11.761-5.539-18.311-5.539v15c3.575,0,7.027,1.043,9.983,3.016
		L274.307,340.609z"/>
	<path style="fill:#1D1D1F;" d="M134.956,368.018l15-0.053c-0.022-6.548-1.961-12.873-5.605-18.291l-12.446,8.373
		C133.888,360.996,134.943,364.443,134.956,368.018z"/>
	<path style="fill:#1D1D1F;" d="M133.624,374.902c-2.784,6.802-9.332,11.196-16.681,11.196v15c13.465,0,25.462-8.053,30.563-20.515
		L133.624,374.902z"/>
	<path style="fill:#1D1D1F;" d="M135.253,340.611c-5.429-3.625-11.761-5.541-18.311-5.541v15c3.575,0,7.027,1.043,9.982,3.016
		L135.253,340.611z"/>
</g>
<g>
</g>
<g>
</g>
<g>
</g>
<g>
</g>
<g>
</g>
<g>
</g>
<g>
</g>
<g>
</g>
<g>
</g>
<g>
</g>
<g>
</g>
<g>
</g>
<g>
</g>
<g>
</g>
<g>
</g>
</svg>
