<?xml version="1.0" encoding="iso-8859-1"?>
<!-- Generator: Adobe Illustrator 19.0.0, SVG Export Plug-In . SVG Version: 6.00 Build 0)  -->
<svg version="1.1" id="Capa_1" xmlns="http://www.w3.org/2000/svg" xmlns:xlink="http://www.w3.org/1999/xlink" x="0px" y="0px"
	 viewBox="0 0 496.485 496.485" style="enable-background:new 0 0 496.485 496.485;" xml:space="preserve">
<circle style="fill:#F16051;" cx="248.242" cy="248.242" r="248.242"/>
<path style="fill:#FFFFFF;" d="M440.63,35.685H143.515c-11.636,0-20.945,9.309-20.945,20.945v210.23
	c0,11.636,9.309,20.945,20.945,20.945H440.63c11.636,0,20.945-9.309,20.945-20.945V55.855
	C460.8,44.218,452.267,35.685,440.63,35.685z"/>
<path style="fill:#193651;" d="M440.63,293.236H143.515c-15.515,0-27.152-12.412-27.152-27.152V55.855
	c0-15.515,12.412-27.152,27.152-27.152H440.63c15.515,0,27.152,12.412,27.152,27.152v210.23
	C467.782,281.6,455.37,293.236,440.63,293.236z M143.515,41.891c-7.758,0-13.964,6.206-13.964,13.964v210.23
	c0,7.758,6.206,13.964,13.964,13.964H440.63c7.758,0,13.964-6.206,13.964-13.964V55.855c0-7.758-6.206-13.964-13.964-13.964
	C440.63,41.891,143.515,41.891,143.515,41.891z"/>
<path style="fill:#E1E6E9;" d="M419.685,62.836h-256c-7.758,0-13.964,6.206-13.964,13.964v169.115
	c0,7.758,6.206,13.964,13.964,13.964h256c7.758,0,13.964-6.206,13.964-13.964V76.8C433.648,69.042,427.442,62.836,419.685,62.836z"
	/>
<g>
	<path style="fill:#193651;" d="M377.018,390.982l-44.994-101.624c-1.552-3.103,0-7.758,3.879-9.309
		c3.103-1.552,7.758,0,9.309,3.103l44.994,101.624c1.552,3.103,0,7.758-3.879,9.309C382.448,396.412,378.57,394.861,377.018,390.982
		z"/>
	<path style="fill:#193651;" d="M197.818,394.861c-3.103-1.552-4.655-5.43-3.879-9.309l44.994-101.624
		c1.552-3.103,5.43-4.655,9.309-3.103c3.103,1.552,4.655,5.43,3.879,9.309l-44.994,101.624
		C205.576,394.861,201.697,396.412,197.818,394.861z"/>
	<path style="fill:#193651;" d="M362.279,349.091H221.091c-3.879,0-6.982-3.103-6.982-6.982s3.103-6.982,6.982-6.982h141.188
		c3.879,0,6.982,3.103,6.982,6.982S366.158,349.091,362.279,349.091z"/>
</g>
<path style="fill:#FFFFFF;" d="M169.115,100.848c0,27.927-22.497,58.182-51.2,58.182c-27.927,0-51.2-29.479-51.2-58.182
	c0-27.927,22.497-51.2,51.2-51.2C145.842,50.424,169.115,72.921,169.115,100.848z"/>
<path style="fill:#193651;" d="M117.915,166.012c-32.582,0-57.406-34.133-57.406-65.164c0-31.806,25.6-58.182,58.182-58.182
	s58.182,25.6,58.182,58.182C176.097,131.879,151.273,166.012,117.915,166.012z M117.915,56.63c-24.048,0-44.218,20.17-44.218,44.218
	c0,23.273,19.394,51.2,44.218,51.2s44.218-27.152,44.218-51.2C162.133,76.8,142.739,56.63,117.915,56.63z"/>
<path style="fill:#FFFFFF;" d="M35.685,186.182v128.776h165.236V186.182c0-15.515-12.412-27.152-27.152-27.152H62.836
	C47.321,159.03,35.685,171.442,35.685,186.182z"/>
<path style="fill:#193651;" d="M200.921,322.715H35.685c-3.879,0-6.982-3.103-6.982-6.982V186.182
	c0-18.618,15.515-34.133,34.133-34.133h110.158c18.618,0,34.133,15.515,34.133,34.133v128.776
	C207.903,319.612,204.8,322.715,200.921,322.715z M41.891,308.752h152.048v-122.57c0-11.636-9.309-20.945-20.945-20.945H62.836
	c-11.636,0-20.945,9.309-20.945,20.945C41.891,186.182,41.891,308.752,41.891,308.752z"/>
<path style="fill:#4FBF9F;" d="M200.921,269.188v-83.006c0-15.515-12.412-27.152-27.152-27.152H62.836
	c-15.515,0-27.152,12.412-27.152,27.152v83.006"/>
<path style="fill:#193651;" d="M200.921,276.17c-3.879,0-6.982-3.103-6.982-6.982v-83.006c0-11.636-9.309-20.945-20.945-20.945
	H62.836c-11.636,0-20.945,9.309-20.945,20.945v83.006c0,3.879-3.103,6.982-6.982,6.982s-6.982-3.103-6.982-6.982v-83.006
	c0-18.618,15.515-34.133,34.133-34.133h110.158c18.618,0,34.133,15.515,34.133,34.133v83.006
	C207.903,273.067,204.8,276.17,200.921,276.17z"/>
<rect x="72.921" y="315.733" style="fill:#FFFFFF;" width="89.988" height="145.842"/>
<g>
	<path style="fill:#193651;" d="M162.909,467.782H72.921c-3.879,0-6.982-3.103-6.982-6.982V315.733c0-3.879,3.103-6.982,6.982-6.982
		h89.988c3.879,0,6.982,3.103,6.982,6.982v145.842C169.891,464.679,166.788,467.782,162.909,467.782z M79.903,454.594h76.024
		V322.715H79.903V454.594z"/>
	<path style="fill:#193651;" d="M169.115,322.715c-3.879,0-6.982-3.103-6.982-6.982v-78.351c0-3.879,3.103-6.982,6.982-6.982
		c3.879,0,6.982,3.103,6.982,6.982v78.352C176.097,319.612,172.994,322.715,169.115,322.715z"/>
	<path style="fill:#193651;" d="M66.715,322.715c-3.879,0-6.982-3.103-6.982-6.982v-78.351c0-3.879,3.103-6.982,6.982-6.982
		s6.982,3.103,6.982,6.982v78.352C73.697,319.612,70.594,322.715,66.715,322.715z"/>
	<path style="fill:#193651;" d="M117.915,467.782c-3.879,0-6.982-3.103-6.982-6.982v-79.127c0-3.879,3.103-6.982,6.982-6.982
		c3.879,0,6.982,3.103,6.982,6.982v79.903C124.897,464.679,121.794,467.782,117.915,467.782z"/>
	<rect x="236.606" y="100.848" style="fill:#193651;" width="166.788" height="13.964"/>
	<rect x="236.606" y="143.515" style="fill:#193651;" width="166.788" height="13.964"/>
	<rect x="236.606" y="186.182" style="fill:#193651;" width="13.964" height="13.964"/>
	<rect x="275.394" y="186.182" style="fill:#193651;" width="13.964" height="13.964"/>
	<rect x="313.406" y="186.182" style="fill:#193651;" width="13.964" height="13.964"/>
	<rect x="351.418" y="186.182" style="fill:#193651;" width="13.964" height="13.964"/>
	<rect x="390.206" y="186.182" style="fill:#193651;" width="13.964" height="13.964"/>
	<rect x="73.697" y="193.164" style="fill:#193651;" width="13.964" height="13.964"/>
</g>
<g>
	<rect x="110.933" y="193.164" style="fill:#193651;" width="13.964" height="13.964"/>
	<rect x="148.17" y="193.164" style="fill:#193651;" width="13.964" height="13.964"/>
</g>
<g>
</g>
<g>
</g>
<g>
</g>
<g>
</g>
<g>
</g>
<g>
</g>
<g>
</g>
<g>
</g>
<g>
</g>
<g>
</g>
<g>
</g>
<g>
</g>
<g>
</g>
<g>
</g>
<g>
</g>
</svg>
